<svg xmlns="http://www.w3.org/2000/svg" xmlns:xlink="http://www.w3.org/1999/xlink" x="0px" y="0px" width="24px" height="216px" viewBox="0 0 24 216">
    <defs>

         <!-- Social: Instagram -->
        <symbol id="core-icon--instagram">
            <path d="M12,2.162c3.204,0,3.584,0.012,4.849,0.07c1.366,0.062,2.633,0.336,3.608,1.311 c0.975,0.975,1.249,2.242,1.311,3.608c0.058,1.265,0.07,1.645,0.07,4.849s-0.012,3.584-0.07,4.849 c-0.062,1.366-0.336,2.633-1.311,3.608c-0.975,0.975-2.242,1.249-3.608,1.311c-1.265,0.058-1.645,0.07-4.849,0.07 s-3.584-0.012-4.849-0.07c-1.366-0.062-2.633-0.336-3.608-1.311c-0.975-0.975-1.249-2.242-1.311-3.608 c-0.058-1.265-0.07-1.645-0.07-4.849s0.012-3.584,0.07-4.849c0.062-1.366,0.336-2.633,1.311-3.608 c0.975-0.975,2.242-1.249,3.608-1.311C8.416,2.174,8.796,2.162,12,2.162 M12,0C8.741,0,8.332,0.014,7.052,0.072 c-1.95,0.089-3.663,0.567-5.038,1.942C0.639,3.389,0.161,5.102,0.072,7.052C0.014,8.332,0,8.741,0,12 c0,3.259,0.014,3.668,0.072,4.948c0.089,1.95,0.567,3.663,1.942,5.038c1.375,1.375,3.088,1.853,5.038,1.942 C8.332,23.986,8.741,24,12,24s3.668-0.014,4.948-0.072c1.95-0.089,3.663-0.567,5.038-1.942c1.375-1.375,1.853-3.088,1.942-5.038 C23.986,15.668,24,15.259,24,12s-0.014-3.668-0.072-4.948c-0.089-1.95-0.567-3.663-1.942-5.038 c-1.375-1.375-3.088-1.853-5.038-1.942C15.668,0.014,15.259,0,12,0L12,0z"/> <path data-color="color-2" d="M12,5.838c-3.403,0-6.162,2.759-6.162,6.162S8.597,18.162,12,18.162s6.162-2.759,6.162-6.162 S15.403,5.838,12,5.838z M12,16c-2.209,0-4-1.791-4-4s1.791-4,4-4s4,1.791,4,4S14.209,16,12,16z"/> <circle data-color="color-2" cx="18.406" cy="5.594" r="1.44"/>
        </symbol>

         <!-- Social: Google Plus -->
        <symbol id="core-icon--google-plus">
            <path data-color="color-2" d="M24,11h-2V9h-2v2h-2v2h2v2h2v-2h2V11z"/> <path d="M16.52643,11.00446L9,11v3h4.30109c-0.23212,1.26971-1.5036,3.58588-4.80109,3.58588 c-2.90216,0-5.27002-2.4043-5.27002-5.36713S5.59784,6.85162,8.5,6.85162c1.65143,0,2.75641,0.70428,3.38788,1.3114l2.30713-2.22211 C12.71356,4.55658,10.79498,3.71875,8.5,3.71875c-4.69928,0-8.5,3.80072-8.5,8.5s3.80072,8.5,8.5,8.5 C14.34778,20.71875,17.35991,15.86501,16.52643,11.00446z"/>
        </symbol>

         <!-- Social: Dribbble -->
        <symbol id="core-icon--dribbble">
            <path fill-rule="evenodd" clip-rule="evenodd" d="M12,24C5.4,24,0,18.6,0,12S5.4,0,12,0s12,5.4,12,12S18.6,24,12,24z M22.1,13.6c-0.4-0.1-3.2-1-6.4-0.4c1.3,3.7,1.9,6.7,2,7.3C20,19,21.7,16.5,22.1,13.6z M16,21.5c-0.2-0.9-0.7-4-2.2-7.8 c0,0,0,0-0.1,0c-5.8,2-7.9,6-8,6.4c1.7,1.4,3.9,2.2,6.3,2.2C13.4,22.3,14.8,22,16,21.5z M4.4,18.9c0.2-0.4,3-5.1,8.3-6.8 c0.1,0,0.3-0.1,0.4-0.1c-0.3-0.6-0.5-1.2-0.8-1.7c-5.1,1.5-10.1,1.5-10.5,1.5c0,0.1,0,0.2,0,0.3C1.8,14.6,2.7,17.1,4.4,18.9z M2,9.9 c0.5,0,4.7,0,9.5-1.2c-1.7-3-3.5-5.6-3.8-5.9C4.8,4.1,2.6,6.7,2,9.9z M9.6,2.1c0.3,0.4,2.1,2.9,3.8,6c3.6-1.4,5.2-3.4,5.4-3.7 C17,2.7,14.6,1.8,12,1.8C11.2,1.8,10.4,1.9,9.6,2.1z M19.9,5.5c-0.2,0.3-1.9,2.5-5.7,4c0.2,0.5,0.5,1,0.7,1.5 c0.1,0.2,0.1,0.4,0.2,0.5c3.4-0.4,6.8,0.3,7.1,0.3C22.2,9.5,21.4,7.3,19.9,5.5z"/>
        </symbol>

         <!-- Social: Facebook -->
        <symbol id="core-icon--facebook">
            <path d="M22,0H2C0.895,0,0,0.895,0,2v20c0,1.105,0.895,2,2,2h11v-9h-3v-4h3V8.413c0-3.1,1.893-4.788,4.659-4.788 c1.325,0,2.463,0.099,2.795,0.143v3.24l-1.918,0.001c-1.504,0-1.795,0.715-1.795,1.763V11h4.44l-1,4h-3.44v9H22c1.105,0,2-0.895,2-2 V2C24,0.895,23.105,0,22,0z"/>
        </symbol>

         <!-- Social: Facebook (Simple)-->
        <symbol id="core-icon--facebook-simple">
            <path d="M9.03153,23L9,13H5V9h4V6.5C9,2.7886,11.29832,1,14.60914,1c1.58592,0,2.94893,0.11807,3.34615,0.17085 v3.87863l-2.29623,0.00104c-1.80061,0-2.14925,0.85562-2.14925,2.11119V9H18.75l-2,4h-3.24019v10H9.03153z"/>
        </symbol>

         <!-- Social: Twitter -->
        <symbol id="core-icon--twitter">
            <path d="M24,4.6c-0.9,0.4-1.8,0.7-2.8,0.8c1-0.6,1.8-1.6,2.2-2.7c-1,0.6-2,1-3.1,1.2c-0.9-1-2.2-1.6-3.6-1.6 c-2.7,0-4.9,2.2-4.9,4.9c0,0.4,0,0.8,0.1,1.1C7.7,8.1,4.1,6.1,1.7,3.1C1.2,3.9,1,4.7,1,5.6c0,1.7,0.9,3.2,2.2,4.1 C2.4,9.7,1.6,9.5,1,9.1c0,0,0,0,0,0.1c0,2.4,1.7,4.4,3.9,4.8c-0.4,0.1-0.8,0.2-1.3,0.2c-0.3,0-0.6,0-0.9-0.1c0.6,2,2.4,3.4,4.6,3.4 c-1.7,1.3-3.8,2.1-6.1,2.1c-0.4,0-0.8,0-1.2-0.1c2.2,1.4,4.8,2.2,7.5,2.2c9.1,0,14-7.5,14-14c0-0.2,0-0.4,0-0.6 C22.5,6.4,23.3,5.5,24,4.6z"/>
        </symbol>

         <!-- Social: Youtube -->
        <symbol id="core-icon--youtube">
            <path d="M23.8,7.2c0,0-0.2-1.7-1-2.4c-0.9-1-1.9-1-2.4-1C17,3.6,12,3.6,12,3.6h0c0,0-5,0-8.4,0.2 c-0.5,0.1-1.5,0.1-2.4,1c-0.7,0.7-1,2.4-1,2.4S0,9.1,0,11.1v1.8c0,1.9,0.2,3.9,0.2,3.9s0.2,1.7,1,2.4c0.9,1,2.1,0.9,2.6,1 c1.9,0.2,8.2,0.2,8.2,0.2s5,0,8.4-0.3c0.5-0.1,1.5-0.1,2.4-1c0.7-0.7,1-2.4,1-2.4s0.2-1.9,0.2-3.9v-1.8C24,9.1,23.8,7.2,23.8,7.2z M9.5,15.1l0-6.7l6.5,3.4L9.5,15.1z"/>
        </symbol>

         <!-- Social: LinkedIn -->
        <symbol id="core-icon--linkedin">
            <path d="M23,0H1C0.4,0,0,0.4,0,1v22c0,0.6,0.4,1,1,1h22c0.6,0,1-0.4,1-1V1C24,0.4,23.6,0,23,0z M7.1,20.5H3.6V9h3.6 V20.5z M5.3,7.4c-1.1,0-2.1-0.9-2.1-2.1c0-1.1,0.9-2.1,2.1-2.1c1.1,0,2.1,0.9,2.1,2.1C7.4,6.5,6.5,7.4,5.3,7.4z M20.5,20.5h-3.6 v-5.6c0-1.3,0-3-1.8-3c-1.9,0-2.1,1.4-2.1,2.9v5.7H9.4V9h3.4v1.6h0c0.5-0.9,1.6-1.8,3.4-1.8c3.6,0,4.3,2.4,4.3,5.5V20.5z"/>
        </symbol>

         <!-- Social: Pinterest -->
        <symbol id="core-icon--pinterest">
            <path d="M12,0C5.4,0,0,5.4,0,12c0,5.1,3.2,9.4,7.6,11.2c-0.1-0.9-0.2-2.4,0-3.4c0.2-0.9,1.4-6,1.4-6S8.7,13,8.7,12 c0-1.7,1-2.9,2.2-2.9c1,0,1.5,0.8,1.5,1.7c0,1-0.7,2.6-1,4c-0.3,1.2,0.6,2.2,1.8,2.2c2.1,0,3.8-2.2,3.8-5.5c0-2.9-2.1-4.9-5-4.9 c-3.4,0-5.4,2.6-5.4,5.2c0,1,0.4,2.1,0.9,2.7c0.1,0.1,0.1,0.2,0.1,0.3c-0.1,0.4-0.3,1.2-0.3,1.4c-0.1,0.2-0.2,0.3-0.4,0.2 c-1.5-0.7-2.4-2.9-2.4-4.6c0-3.8,2.8-7.3,7.9-7.3c4.2,0,7.4,3,7.4,6.9c0,4.1-2.6,7.5-6.2,7.5c-1.2,0-2.4-0.6-2.8-1.4 c0,0-0.6,2.3-0.7,2.9c-0.3,1-1,2.3-1.5,3.1C9.6,23.8,10.8,24,12,24c6.6,0,12-5.4,12-12C24,5.4,18.6,0,12,0z"/>
        </symbol>

        <!-- Search -->
        <symbol id="core-icon--search">
            <path d="M22.707,19.879l-4.37-4.37C19.386,13.928,20,12.035,20,10c0-5.514-4.486-10-10-10S0,4.486,0,10 s4.486,10,10,10c2.035,0,3.928-0.614,5.509-1.663l4.369,4.37c0.391,0.391,1.024,0.391,1.414,0l1.414-1.414 C23.097,20.902,23.098,20.269,22.707,19.879z M2,10c0-4.411,3.589-8,8-8s8,3.589,8,8s-3.589,8-8,8S2,14.411,2,10z"></path>
        </symbol>

        <!-- Close -->
        <symbol id="core-icon--close">
            <path d="M19 6.41L17.59 5 12 10.59 6.41 5 5 6.41 10.59 12 5 17.59 6.41 19 12 13.41 17.59 19 19 17.59 13.41 12z"/>
        </symbol>

        <!-- Arrow: Left -->
        <symbol id="core-icon--arrow-left">
            <path d="M15.41 16.09l-4.58-4.59 4.58-4.59L14 5.5l-6 6 6 6z"></path>
        </symbol>

        <!-- Arrow: Right -->
        <symbol id="core-icon--arrow-right">
            <path d="M8.59 16.34l4.58-4.59-4.58-4.59L10 5.75l6 6-6 6z"></path>
        </symbol>

        <!-- Placeholder -->
        <symbol id="core-icon--placeholder">
            <line x1="2" y1="22" x2="22" y2="2" stroke-linecap="square" stroke-miterlimit="10" stroke-width="2" stroke-linejoin="miter"></line>
            <line x1="2" y1="13" x2="13" y2="2" stroke-linecap="square" stroke-miterlimit="10" stroke-width="2" data-color="color-2" stroke-linejoin="miter"></line>
            <line x1="4" y1="2" x2="2" y2="4" stroke-linecap="square" stroke-miterlimit="10" stroke-width="2" stroke-linejoin="miter"></line>
            <line x1="11" y1="22" x2="22" y2="11" stroke-linecap="square" stroke-miterlimit="10" stroke-width="2" data-color="color-2" stroke-linejoin="miter"></line>
            <line x1="22" y1="20" x2="20" y2="22" stroke-linecap="square" stroke-miterlimit="10" stroke-width="2" stroke-linejoin="miter"></line>
        </symbol>

        <!-- Email -->
        <symbol id="core-icon--email">
            <path d="M23,2H1C0.4,2,0,2.4,0,3v18c0,0.6,0.4,1,1,1h22c0.6,0,1-0.4,1-1V3C24,2.4,23.6,2,23,2z M20.7,6.8l-8,7 C12.5,13.9,12.2,14,12,14s-0.5-0.1-0.7-0.2l-8-7c-0.4-0.4-0.5-1-0.1-1.4c0.4-0.4,1-0.5,1.4-0.1l7.3,6.4l7.3-6.4 c0.4-0.4,1-0.3,1.4,0.1C21.1,5.8,21.1,6.4,20.7,6.8z"/>
        </symbol>

    </defs>

</svg>
